.
 
http://www.scenetime.com    -  Hottest private tracker on the net. !!!

New release on http://www.scenetime.com

        Seed back for speed


...................................NFO:.................................................[img]http://img718.imageshack.us/img718/3536/winterthedolphinthatcou.png[/img]


Winter.The.Dolphin.That.Could.DVDRip.XviD-SwampFr0g


Watch never before seen footage as Winter is rescued from the waters near
Cape Canaveral, Florida, and see the Clearwater Marine Aquarium team rally
around her as she travels her path to survival. Go behind the scenes with
Hanger Prosthetics as they develop a new tail for Winter, and see how she
is now inspiring disabled children. This is a must see one-hour film for
all ages. It is also good for classrooms.
 
http://cmastore.seewinter.com/products/132-winter-dvd-documentary.aspx


General
Complete name                    : Winter.The.Dolphin.That.Could.DVDRip.XviD-SwampFr0g.avi
Format                           : AVI
Format/Info                      : Audio Video Interleave
Format profile                   : OpenDML
Format settings                  : rec
File size                        : 693 MiB
Duration                         : 1h 3mn
Overall bit rate                 : 1 517 Kbps
Writing application              : AVI-Mux GUI 1.17.8.3

Video
ID                               : 0
Format                           : MPEG-4 Visual
Format profile                   : Simple@L1
Format settings, BVOP            : No
Format settings, QPel            : No
Format settings, GMC             : No warppoints
Format settings, Matrix          : Default (H.263)
Codec ID                         : XVID
Codec ID/Hint                    : XviD
Duration                         : 1h 3mn
Bit rate                         : 1 384 Kbps
Width                            : 720 pixels
Height                           : 480 pixels
Display aspect ratio             : 4:3
Frame rate                       : 29.970 fps
Standard                         : NTSC
Color space                      : YUV
Chroma subsampling               : 4:2:0
Bit depth                        : 8 bits
Scan type                        : Progressive
Compression mode                 : Lossy
Bits/(Pixel*Frame)               : 0.134
Stream size                      : 633 MiB (91%)
Writing library                  : Lavc52.114.0

Audio
ID                               : 1
Format                           : MPEG Audio
Format version                   : Version 1
Format profile                   : Layer 3
Mode                             : Joint stereo
Mode extension                   : MS Stereo
Codec ID                         : 55
Codec ID/Hint                    : MP3
Duration                         : 1h 3mn
Bit rate mode                    : Constant
Bit rate                         : 128 Kbps
Channel(s)                       : 2 channels
Sampling rate                    : 48.0 KHz
Compression mode                 : Lossy
Stream size                      : 58.5 MiB (8%)
Alignment                        : Aligned on interleaves
Interleave, duration             : 566 ms (16.97 video frames)
Interleave, preload duration     : 216 ms
Writing library                  : LAME3.98.4